<svg width="90" height="30" viewBox="0 0 90 30" fill="none" xmlns="http://www.w3.org/2000/svg">
<g clip-path="url(#clip0_1_8)">
<path d="M14.7771 6.79863C13.6037 6.79863 12.6723 7.8165 12.637 9.04812C12.6354 9.06112 12.6346 9.07421 12.6346 9.08731V9.09974V9.10021C12.6346 9.10681 12.6337 9.1132 12.6337 9.11981C12.6335 9.13001 12.6338 9.14022 12.6346 9.15039L12.6318 10.6338C12.6316 10.656 12.6338 10.6781 12.6384 10.6997C12.6384 10.7002 12.6384 10.7007 12.6384 10.7012C12.6599 11.3828 12.905 12.0083 13.3013 12.4895C12.886 12.987 12.6351 13.6412 12.6275 14.3552C12.6254 14.3698 12.6245 14.3845 12.6246 14.3992L12.6146 19.6949C12.6146 19.6955 12.6146 19.6962 12.6146 19.6968C12.6145 19.6975 12.6146 19.6981 12.6146 19.6987V19.7389C12.6145 19.7565 12.6159 19.7741 12.6189 19.7914C12.6189 19.7921 12.6189 19.7927 12.6189 19.7934C12.633 20.5803 12.9401 21.2949 13.4399 21.8029C12.923 22.3253 12.608 23.0696 12.6084 23.8789V23.8794C12.6074 23.8893 12.6069 23.8992 12.6069 23.909L12.5998 27.6755C12.5998 27.6766 12.5998 27.6777 12.5998 27.6788C12.5998 27.6793 12.5998 27.6798 12.5998 27.6803V27.7185C12.5995 27.7369 12.601 27.7553 12.6041 27.7735C12.6503 28.9947 13.5771 30 14.7431 30C15.474 30 16.1107 29.6041 16.4966 29.0088C16.6171 29.0661 16.7412 29.1171 16.8727 29.1536C18.1923 29.5204 19.5312 28.6336 19.8561 27.2272C19.8693 27.1702 19.8781 27.1132 19.8877 27.0561C21.0687 27.5017 22.4255 26.9914 23.0766 25.7911C23.5946 24.8362 23.5541 23.6969 23.058 22.8082C23.3985 22.503 23.6895 22.1222 23.9072 21.6751C24.7251 19.9952 24.2539 17.9429 22.8468 16.8721C23.0196 16.493 23.1206 16.0697 23.1206 15.6205C23.1206 14.237 22.1936 13.0648 20.9571 12.8333C21.4739 11.5017 21.1056 9.9191 19.977 9.03016C19.3225 8.51478 18.5298 8.34167 17.7844 8.47531C17.476 8.5306 17.1769 8.64114 16.8979 8.79886C16.7532 7.68241 15.87 6.79885 14.7769 6.79885L14.7771 6.79863ZM12.1428 6.80293C11.4081 6.80923 10.6757 6.88524 9.95541 7.02993L9.95684 7.03089L9.95732 7.03137C9.96668 7.05067 9.97576 7.07011 9.98456 7.08967L9.99077 7.10496C10.2218 7.65927 10.2234 8.2826 9.9953 8.83811C9.76717 9.39361 9.32794 9.8359 8.77403 10.0679C8.22021 10.2997 7.59706 10.3023 7.04131 10.0751C6.48556 9.84802 6.04261 9.4097 5.80966 8.85637C5.79928 8.8298 5.7894 8.80303 5.78003 8.77609C4.53235 9.61876 3.46047 10.696 2.62408 11.9479C3.11103 12.187 3.49611 12.5928 3.70938 13.0916L3.71607 13.1073C3.94694 13.6616 3.94849 14.2848 3.72038 14.8402C3.49226 15.3956 3.05312 15.8378 2.49933 16.0697C1.98755 16.2833 1.41524 16.3018 0.890717 16.1218C0.585689 17.6327 0.584552 19.1893 0.887371 20.7006C0.911225 20.6889 0.935283 20.6776 0.959534 20.6667C1.51248 20.4329 2.1356 20.4279 2.69217 20.653C3.24874 20.8781 3.6933 21.3147 3.9283 21.8672L3.93499 21.8829C4.16571 22.4371 4.16718 23.0602 3.93907 23.6155C3.71097 24.1708 3.27192 24.6129 2.71825 24.8448C2.68884 24.8561 2.65921 24.8668 2.62936 24.8769C3.48438 26.1474 4.58232 27.2363 5.85994 28.0808C6.09168 27.547 6.51979 27.1229 7.05564 26.8961C7.60864 26.6621 8.23189 26.6571 8.78857 26.8822C9.34526 27.1072 9.7899 27.544 10.0249 28.0965L10.0316 28.1123C10.254 28.649 10.2619 29.2507 10.0536 29.7931C10.7425 29.9234 11.4418 29.9911 12.143 29.9952V23.1489C11.2292 23.1262 10.3413 22.8404 9.58585 22.3258C8.83036 21.8112 8.2393 21.0897 7.88348 20.2477C7.3949 19.0873 7.38669 17.7805 7.86067 16.6141C8.33465 15.4477 9.25208 14.517 10.4116 14.0263C10.9605 13.7958 11.5478 13.6705 12.143 13.6569V6.80277L12.1428 6.80293ZM14.7771 7.41034C15.6107 7.41034 16.3092 8.15736 16.3092 9.11979C16.3088 9.1549 16.3145 9.18982 16.3259 9.22301C16.1601 9.38067 16.0073 9.55833 15.8748 9.76066C15.8522 9.79426 15.8365 9.83201 15.8286 9.87172C15.8207 9.91143 15.8208 9.95231 15.8288 9.99198C15.8369 10.0317 15.8527 10.0694 15.8754 10.1029C15.8981 10.1364 15.9273 10.1651 15.9611 10.1872C15.995 10.2094 16.0329 10.2246 16.0727 10.232C16.1125 10.2394 16.1534 10.2388 16.193 10.2303C16.2326 10.2218 16.2701 10.2055 16.3033 10.1824C16.3365 10.1593 16.3649 10.1298 16.3866 10.0957C17.1432 8.94013 18.5562 8.68931 19.5986 9.51022C20.641 10.3312 20.8886 11.9576 20.1319 13.1132C19.7018 13.7702 19.0555 14.1273 18.39 14.1689C18.3232 14.1731 18.2562 14.1702 18.1893 14.168C18.174 13.4571 17.8975 12.7556 17.3654 12.2439C17.6657 11.7867 17.8453 11.2313 17.8509 10.6339C17.8516 10.5935 17.8444 10.5534 17.8295 10.5159C17.8147 10.4784 17.7925 10.4441 17.7644 10.4152C17.7362 10.3863 17.7026 10.3632 17.6655 10.3473C17.6284 10.3314 17.5886 10.323 17.5482 10.3226C17.5078 10.3222 17.4678 10.3298 17.4304 10.3449C17.393 10.36 17.3589 10.3824 17.3302 10.4108C17.3015 10.4391 17.2786 10.4729 17.263 10.5101C17.2474 10.5473 17.2393 10.5873 17.2392 10.6277C17.2274 11.8717 16.3125 12.8365 15.222 12.8241C14.1315 12.8117 13.2336 11.8254 13.2454 10.5813C13.2456 10.5711 13.2453 10.5609 13.2445 10.5507C13.2442 10.5487 13.2438 10.5466 13.2435 10.5445L13.2459 9.24939L13.2464 9.09933C13.2564 8.14699 13.9494 7.41034 14.7771 7.41034ZM16.9725 12.7173C17.7095 13.4606 17.7825 14.7457 17.1178 15.5833C17.065 15.6499 17.0096 15.7115 16.9515 15.7683C16.9252 15.794 16.8966 15.8152 16.8693 15.839C16.8481 15.8087 16.8287 15.777 16.8062 15.7477C16.4064 15.2253 15.8221 14.8667 15.1427 14.8005C15.1327 14.7994 15.1226 14.7987 15.1126 14.7986C15.0331 14.7973 14.9563 14.827 14.8984 14.8814C14.8404 14.9357 14.8059 15.0105 14.8021 15.0899C14.7984 15.1692 14.8256 15.2469 14.8781 15.3066C14.9306 15.3662 15.0042 15.4031 15.0834 15.4094C16.082 15.5066 16.8457 16.4864 16.7532 17.6287C16.7387 17.8073 16.7042 17.9779 16.6524 18.1382C16.6391 18.1766 16.6336 18.2174 16.6362 18.258C16.6389 18.2986 16.6496 18.3383 16.6678 18.3747C16.686 18.4111 16.7112 18.4435 16.7421 18.4701C16.7729 18.4966 16.8088 18.5167 16.8475 18.5292C16.8863 18.5417 16.9271 18.5463 16.9677 18.5428C17.0082 18.5393 17.0476 18.5278 17.0837 18.5089C17.1197 18.49 17.1516 18.464 17.1775 18.4326C17.2034 18.4012 17.2227 18.365 17.2344 18.326C17.3008 18.1207 17.3447 17.9036 17.363 17.678C17.3998 17.2227 17.3272 16.7816 17.1685 16.3867C17.3233 16.2659 17.4679 16.1256 17.5967 15.9633C17.8761 15.6111 18.0556 15.2032 18.1386 14.78C18.8517 14.8112 19.5631 14.5586 20.1233 14.0564C20.1717 14.0131 20.2187 13.9678 20.2648 13.9207C20.4029 13.7795 20.5302 13.6219 20.6438 13.4486C20.6522 13.4356 20.6589 13.4219 20.6672 13.4089C21.6869 13.4965 22.509 14.4358 22.509 15.6201C22.509 15.9399 22.4484 16.2426 22.3398 16.5157C22.3356 16.5263 22.3298 16.5358 22.3255 16.5463C21.9584 16.3598 21.574 16.2453 21.1876 16.207C20.8133 16.17 20.4391 16.2037 20.0793 16.2969C19.963 15.9714 19.7437 15.6855 19.4337 15.4992C19.3813 15.4668 19.3203 15.451 19.2588 15.4538C19.1929 15.4569 19.1297 15.4812 19.0788 15.5231C19.0278 15.565 18.9918 15.6223 18.976 15.6864C18.9603 15.7504 18.9657 15.8179 18.9914 15.8786C19.0171 15.9394 19.0618 15.9902 19.1188 16.0235C19.5221 16.2658 19.6864 16.8561 19.4542 17.321C19.4179 17.3937 19.375 17.4581 19.3271 17.514C19.2996 17.5444 19.2785 17.5799 19.265 17.6185C19.2515 17.6572 19.2459 17.6981 19.2486 17.739C19.2512 17.7798 19.262 17.8197 19.2803 17.8563C19.2986 17.8929 19.324 17.9254 19.3552 17.952C19.3863 17.9786 19.4224 17.9987 19.4614 18.011C19.5004 18.0234 19.5415 18.0278 19.5823 18.024C19.623 18.0202 19.6626 18.0082 19.6986 17.9888C19.7347 17.9695 19.7665 17.9431 19.7921 17.9112C19.8729 17.8168 19.9432 17.7109 20.0014 17.5943C20.1112 17.3745 20.1663 17.1387 20.1735 16.9047C20.8298 16.7172 21.543 16.7849 22.1931 17.1656C23.5663 17.9699 24.102 19.8775 23.3573 21.407C22.9881 22.1651 22.3834 22.6785 21.7047 22.91C21.3992 23.0142 21.0967 22.9863 20.7713 22.8163C20.446 22.6464 20.1056 22.3236 19.7983 21.8433C19.7968 21.8409 19.7952 21.8385 19.7935 21.8362C20.2223 21.4969 20.5086 20.9596 20.5338 20.3537C20.5361 20.3129 20.5301 20.272 20.5163 20.2335C20.5024 20.195 20.481 20.1597 20.4533 20.1296C20.4256 20.0995 20.3922 20.0753 20.3549 20.0584C20.3177 20.0415 20.2774 20.0322 20.2366 20.0311C20.1555 20.0289 20.0769 20.059 20.0181 20.1148C19.9592 20.1705 19.9248 20.2473 19.9226 20.3284C19.8912 21.0823 19.3258 21.6309 18.682 21.5986C18.5813 21.5936 18.4849 21.5746 18.3928 21.5437C18.3547 21.5309 18.3145 21.5257 18.2744 21.5284C18.2343 21.5312 18.1951 21.5418 18.1592 21.5597C18.1232 21.5776 18.091 21.6024 18.0646 21.6327C18.0382 21.663 18.0181 21.6982 18.0053 21.7363C17.9925 21.7744 17.9873 21.8146 17.99 21.8547C17.9928 21.8948 18.0034 21.9339 18.0213 21.9699C18.0392 22.0059 18.064 22.038 18.0943 22.0645C18.1246 22.0909 18.1598 22.111 18.1978 22.1238C18.3417 22.1722 18.4941 22.2015 18.6514 22.2094C18.8633 22.22 19.0666 22.1886 19.2574 22.1258C19.2646 22.1423 19.2732 22.1581 19.2832 22.1731C19.6331 22.7199 20.039 23.1241 20.4879 23.3587C20.9369 23.5934 21.4369 23.6479 21.9021 23.4892C22.1302 23.4114 22.3494 23.3054 22.5582 23.1776C22.9153 23.873 22.939 24.7615 22.5391 25.4988C21.9842 26.5218 20.8669 26.8803 19.9239 26.4058C19.8575 25.3028 19.1585 24.3152 18.1069 24.0139C18.19 23.5064 18.0869 22.9653 17.78 22.5171C17.7516 22.4744 17.713 22.4394 17.6675 22.4156C17.6221 22.3917 17.5714 22.3796 17.5201 22.3805C17.4766 22.3812 17.4338 22.3911 17.3945 22.4097C17.3552 22.4282 17.3203 22.455 17.2921 22.4881C17.2639 22.5212 17.2431 22.5599 17.2311 22.6016C17.2191 22.6434 17.2161 22.6873 17.2223 22.7303C17.2237 22.7404 17.2256 22.7505 17.2281 22.7604C17.2372 22.7971 17.2531 22.8318 17.2749 22.8627C17.68 23.4543 17.5653 24.3131 17.0355 24.7494C16.9526 24.8177 16.8657 24.8714 16.7764 24.9119C16.7382 24.9274 16.7036 24.9504 16.6745 24.9796C16.6455 25.0088 16.6226 25.0436 16.6073 25.0819C16.592 25.1202 16.5846 25.1611 16.5856 25.2023C16.5865 25.2435 16.5957 25.2841 16.6127 25.3216C16.6298 25.3592 16.6542 25.3929 16.6845 25.4207C16.7149 25.4486 16.7506 25.47 16.7894 25.4838C16.8283 25.4975 16.8695 25.5032 16.9106 25.5006C16.9518 25.498 16.9919 25.4872 17.0288 25.4687C17.1675 25.4057 17.3009 25.3234 17.4245 25.2216C17.6367 25.0467 17.8014 24.8319 17.9196 24.5955C17.9215 24.5962 17.9234 24.5968 17.9253 24.5974C18.8999 24.8683 19.516 25.9795 19.2596 27.0893C19.0673 27.9216 18.4612 28.4872 17.759 28.6038C17.7005 28.6135 17.6413 28.6205 17.5817 28.6239C17.4623 28.6306 17.3407 28.6242 17.219 28.6043C17.1581 28.5943 17.0973 28.5811 17.0364 28.5641C16.9397 28.5373 16.8485 28.4997 16.7597 28.4576C16.8408 28.2128 16.8868 27.951 16.8868 27.6786C16.8878 27.5987 16.8575 27.5215 16.8023 27.4637C16.7472 27.4059 16.6716 27.3719 16.5917 27.3691C16.5118 27.3663 16.4341 27.3949 16.375 27.4487C16.3159 27.5025 16.2802 27.5773 16.2756 27.6571C16.2752 27.6642 16.275 27.6714 16.2751 27.6786C16.2751 28.5808 15.661 29.2938 14.8973 29.3794C14.8464 29.3851 14.795 29.388 14.7429 29.388C13.9097 29.388 13.212 28.6417 13.2113 27.68C13.2113 27.6795 13.2113 27.6791 13.2113 27.6786L13.2184 24.0213C13.2194 24.0087 13.2195 23.9961 13.2189 23.9835C13.1661 22.7602 14.0048 21.7508 15.0703 21.6657C15.1871 21.9819 15.381 22.2704 15.6524 22.4939C15.776 22.5957 15.9089 22.6785 16.0476 22.7414C16.0843 22.7587 16.1241 22.7686 16.1646 22.7704C16.2051 22.7722 16.2456 22.7659 16.2837 22.7519C16.3218 22.7379 16.3567 22.7164 16.3864 22.6888C16.4161 22.6612 16.44 22.6279 16.4568 22.591C16.4735 22.554 16.4827 22.5141 16.4839 22.4735C16.485 22.433 16.4781 22.3926 16.4635 22.3547C16.4489 22.3169 16.4269 22.2823 16.3988 22.253C16.3708 22.2238 16.3371 22.2004 16.2999 22.1842C16.2106 22.1437 16.1238 22.09 16.0409 22.0217C15.5111 21.5853 15.3963 20.7266 15.8015 20.135C15.834 20.0888 15.8532 20.0346 15.8568 19.9783C15.8604 19.9219 15.8484 19.8657 15.822 19.8157C15.7956 19.7658 15.756 19.7242 15.7074 19.6954C15.6588 19.6666 15.6032 19.6519 15.5467 19.6528C15.4971 19.6536 15.4484 19.6664 15.4049 19.6902C15.3613 19.7141 15.3242 19.7481 15.2968 19.7895C15.0343 20.1728 14.9208 20.6242 14.9451 21.0645C14.5738 21.1058 14.2286 21.2293 13.9233 21.4186C13.4937 21.0076 13.217 20.3944 13.226 19.7049L13.2308 17.088L13.2361 14.4361C13.2366 14.4279 13.2367 14.4198 13.2366 14.4117C13.2311 13.8356 13.4237 13.3124 13.7388 12.9173C14.155 13.2373 14.6621 13.4295 15.2146 13.4358C15.8926 13.4435 16.5065 13.168 16.9723 12.7175L16.9725 12.7173Z" fill="url(#paint0_linear_1_8)"/>
<path d="M34.3311 18.8025C33.8091 18.5904 33.3238 18.3539 32.8752 18.0928C32.4266 17.8318 32.0392 17.5178 31.7129 17.1508C31.3867 16.7837 31.1338 16.3514 30.9544 15.8539C30.7749 15.3563 30.6852 14.765 30.6852 14.0798C30.6852 13.2315 30.832 12.4852 31.1257 11.8408C31.4193 11.1964 31.8312 10.6541 32.3614 10.2136C32.8916 9.77316 33.5319 9.43873 34.2823 9.21035C35.0326 8.98198 35.8646 8.86778 36.7782 8.86778C37.5286 8.86778 38.2953 8.94528 39.0783 9.10024C39.8613 9.25521 40.7994 9.52029 41.8923 9.89548L40.2284 12.8808C39.168 12.3751 38.0506 12.1222 36.876 12.1222C36.6477 12.1222 36.4111 12.1467 36.1664 12.1956C35.9217 12.2446 35.7015 12.3302 35.5057 12.4526C35.31 12.5749 35.1468 12.7421 35.0163 12.9542C34.8858 13.1663 34.8206 13.4436 34.8206 13.7862C34.8206 14.0635 34.8736 14.2918 34.9796 14.4713C35.0857 14.6507 35.2202 14.8057 35.3834 14.9362C35.5465 15.0667 35.7341 15.1768 35.9462 15.2665C36.1583 15.3562 36.3704 15.4419 36.5824 15.5234L38.0262 16.0862C38.646 16.3309 39.2129 16.5879 39.7268 16.857C40.2407 17.1262 40.677 17.4525 41.0359 17.8358C41.3948 18.2192 41.6721 18.6882 41.8679 19.2428C42.0636 19.7975 42.1615 20.4908 42.1615 21.3228C42.1615 22.1547 42.0106 22.9133 41.7088 23.5984C41.4071 24.2836 40.9666 24.8668 40.3875 25.348C39.8084 25.8292 39.0946 26.2044 38.2464 26.4736C37.3981 26.7428 36.4274 26.8774 35.3345 26.8774C34.8288 26.8774 34.3639 26.861 33.9397 26.8284C33.5156 26.7958 33.1037 26.7387 32.704 26.6572C32.3043 26.5756 31.9047 26.4777 31.505 26.3635C31.1054 26.2493 30.6771 26.1025 30.2204 25.9231L31.0523 22.4973C31.7212 22.6768 32.3777 22.8358 33.0221 22.9745C33.6665 23.1131 34.3231 23.1825 34.9919 23.1825C35.8892 23.1825 36.5743 23.0642 37.0474 22.8277C37.5205 22.5911 37.7978 22.1384 37.8793 21.4696C37.912 21.127 37.8712 20.8415 37.757 20.6132C37.6428 20.3848 37.4796 20.1931 37.2675 20.0381C37.0555 19.8832 36.8189 19.7567 36.5579 19.6589L35.7749 19.3652L34.3311 18.8025ZM44.2169 13.8351L47.9363 13.8351V20.4908C47.9363 21.0618 47.9852 21.5389 48.0831 21.9223C48.181 22.3056 48.3278 22.6074 48.5235 22.8277C48.7193 23.0479 48.9599 23.2029 49.2454 23.2926C49.5309 23.3823 49.8694 23.4272 50.2609 23.4272C50.734 23.4272 51.1581 23.4027 51.5333 23.3538L51.4844 22.9133V13.8351H55.2037V25.9231C54.6002 26.1351 53.8783 26.3228 53.0382 26.4859C52.198 26.649 51.3375 26.7306 50.4566 26.7306C49.6247 26.7306 48.8294 26.6653 48.0708 26.5348C47.3123 26.4043 46.6476 26.127 46.0766 25.7029C45.5056 25.2788 45.0529 24.6629 44.7185 23.8554C44.3841 23.0479 44.2169 21.959 44.2169 20.5887V13.8351ZM58.2869 16.8694H56.2559L57.8709 13.8351H61.419L61.7127 15.2054C62.0879 14.7813 62.5487 14.4346 63.0952 14.1655C63.6417 13.8963 64.2738 13.7617 64.9916 13.7617C66.6718 13.7617 67.8709 14.3734 68.5886 15.5969C68.9965 15.026 69.4777 14.5774 70.0323 14.2511C70.587 13.9248 71.2803 13.7617 72.1123 13.7617C73.5804 13.7617 74.653 14.1491 75.33 14.924C76.0071 15.6989 76.3455 16.9346 76.3455 18.6312V26.6083H72.6261V19.2918C72.6261 18.5088 72.4997 17.9542 72.2469 17.6279C71.994 17.3016 71.5576 17.1385 70.9377 17.1385C70.6767 17.1385 70.4361 17.1671 70.2159 17.2242C69.9956 17.2812 69.808 17.3873 69.6531 17.5422C69.4981 17.6972 69.3758 17.9093 69.286 18.1785C69.1963 18.4476 69.1514 18.8024 69.1514 19.2429V26.6082H65.4321V19.2429C65.4321 18.4272 65.2893 17.8726 65.0038 17.5789C64.7184 17.2853 64.3228 17.1385 63.817 17.1385C63.5723 17.1385 63.344 17.163 63.1319 17.2119C62.9198 17.2608 62.7281 17.3587 62.5568 17.5055C62.3856 17.6524 62.251 17.8644 62.1531 18.1417C62.0552 18.4191 62.0063 18.7861 62.0063 19.2429V26.6082H58.2869L58.2869 16.8694ZM83.7353 23.4027H89.3389V26.6083H78.9882V23.8432L79.392 23.3905L80.4197 22.2404L81.8022 20.6989L83.2704 19.0716L84.5428 17.6524L85.3748 16.747L84.9833 16.8694H82.1448V18.2152L79.0861 17.2853V13.8351H89.1921V16.7225L83.7353 23.4027Z" fill="black"/>
</g>
<defs>
<linearGradient id="paint0_linear_1_8" x1="0.661098" y1="6.79863" x2="24.3085" y2="6.79863" gradientUnits="userSpaceOnUse">
<stop stop-color="#06B6D4"/>
<stop offset="1" stop-color="#2563EB"/>
</linearGradient>
<clipPath id="clip0_1_8">
<rect width="90" height="30" fill="white"/>
</clipPath>
</defs>
</svg>
